# xmcd CD database file
#
# Track frame offsets:
#	150
#	23938
#	46388
#	75146
#	106755
#	142519
#	165094
#	192614
#
# Disc length: 2968 seconds
#
# Revision: 0
# Processed by: cddbd v1.5.1PL2 Copyright (c) Steve Scherf et al.
# Submitted via: CDex 1.51
#
DISCID=4e0b9608
DTITLE=Pete York's Blue Sausage Band - On Stage 19.11.05 in Eisenach
DYEAR=2005
DGENRE=Blues
TTITLE0=Pete York's Blue Sausage Band - Flip, Flop 'n Fly
TTITLE1=Pete York's Blue Sausage Band - Travelin' Riverside Blues
TTITLE2=Pete York's Blue Sausage Band - B and O Blues
TTITLE3=Pete York's Blue Sausage Band - Walkin' Blues
TTITLE4=Pete York's Blue Sausage Band - Listen Here
TTITLE5=Pete York's Blue Sausage Band - Going Down Slow
TTITLE6=Pete York's Blue Sausage Band - Steady Rollin' Man
TTITLE7=Pete York's Blue Sausage Band - Sweet Home Chicago
EXTD=YEAR: 2005
EXTT0=
EXTT1=
EXTT2=
EXTT3=
EXTT4=
EXTT5=
EXTT6=
EXTT7=
PLAYORDER=
